<svg width="1440" height="1024" viewBox="0 0 1440 1024" fill="none" xmlns="http://www.w3.org/2000/svg">
<g clip-path="url(#clip0_28_511)">
<path opacity="0.1" d="M717.12 511.795L315.072 1024H367.104L717.12 511.795L414.144 1024H457.344L717.12 511.795L497.664 1024H535.488L717.12 511.795C717.12 512 717.12 511.59 717.12 511.795ZM0 838.246L717.12 511.59L0 779.059V838.246ZM704.064 1024L717.12 511.795L1027.39 1024H983.808L717.12 511.795L943.296 1024H905.28L717.12 511.795C717.12 511.795 717.12 511.795 717.12 512L801.216 1024H768.576L717.312 511.795V512L736.32 1024.2H704.064V1024ZM717.12 511.795L190.656 1024H256.896L717.12 511.795ZM869.376 1024L717.312 511.795L834.624 1024H869.376ZM1074.82 1024H1127.23L717.312 511.795L1074.82 1024ZM605.76 1024L717.12 511.795C717.12 511.795 717.12 511.795 717.12 511.59L571.392 1024H605.76ZM717.12 511.795L639.168 1024H671.808L717.12 511.795ZM717.12 511.59C716.928 511.59 716.928 511.59 717.12 511.59V511.59ZM717.12 511.795C716.928 511.59 717.12 511.59 717.12 511.795L23.616 0H0V55.296L717.12 511.795ZM0 615.219L717.12 511.59L0 563.2V615.219ZM717.12 511.795C717.12 511.59 717.12 511.59 717.12 511.795L0 122.47V185.139L717.12 511.795ZM717.12 511.59L983.424 0H943.104L717.12 511.59ZM717.12 511.795C717.312 511.795 717.312 511.795 717.12 511.795L1440 562.995V614.81L717.12 511.795L1440 667.443V721.51L717.12 511.795C717.312 511.795 717.312 511.795 717.12 511.795L1440 777.626V836.403L717.12 511.795C717.312 511.795 717.312 511.795 717.12 511.795L1440 898.662V965.222L717.12 511.795C717.312 511.795 717.312 511.795 717.12 511.795L1422.14 1024H1330.18L717.12 511.795L1252.61 1024H1185.79L717.12 511.795L113.856 1024H22.848L717.12 511.795L0 968.09V900.915L717.12 511.795L0 722.739V668.262L717.12 511.795C717.12 511.59 716.928 511.59 717.12 511.795C717.12 511.59 717.12 511.59 717.12 511.795L257.472 0H315.648L717.12 511.795C717.12 511.59 717.12 511.59 717.12 511.795L367.488 0H414.528L717.12 511.795C717.12 511.59 717.12 511.59 717.12 511.795L535.68 0H571.584L717.12 511.795C717.12 511.59 717.12 511.59 717.12 511.795L605.952 0H639.36L717.12 511.795L672 0H704.256L717.12 511.795C717.12 511.59 717.12 511.59 717.12 511.795L736.128 0H768.384L717.12 511.795C717.12 511.59 717.12 511.59 717.12 511.795L1126.66 0H1185.22L717.12 511.795C717.12 511.59 717.12 511.59 717.12 511.795C717.312 511.59 717.12 511.59 717.12 511.795L1252.03 0H1329.41L717.12 511.795ZM717.12 511.59C717.12 511.795 717.12 511.795 717.12 511.59V511.59ZM717.312 511.795C717.12 511.795 717.12 511.795 717.312 511.795V511.795ZM1440 460.39L717.312 511.59C717.312 511.59 717.312 511.59 717.12 511.59H1440V460.39ZM717.12 511.795C717.312 511.59 717.312 511.795 717.12 511.795L1440 301.875V245.76L717.12 511.795C717.312 511.59 717.312 511.59 717.12 511.795L1440 186.982V124.928L717.12 511.795C717.312 511.59 717.12 511.59 717.12 511.795C717.312 511.59 717.312 511.59 717.12 511.795L1440 58.368V0H1421.38L717.12 511.795ZM717.12 511.795C717.312 511.59 717.312 511.795 717.12 511.795L1440 408.576V355.942L717.12 511.795ZM717.12 511.795C716.928 511.59 717.12 511.59 717.12 511.795L0 244.326V300.851L717.12 511.795C717.12 511.59 717.12 511.59 717.12 511.795ZM717.12 511.59C717.12 511.795 717.12 511.795 717.12 511.59V511.59ZM717.12 511.59L1074.43 0H1027.01L717.12 511.59ZM0 355.123V408.166L717.12 511.795L0 355.123ZM717.12 511.795L0 460.186V511.795H717.12C716.928 511.795 716.928 511.795 717.12 511.795ZM717.12 511.795C716.928 511.59 716.928 511.795 717.12 511.795V511.795ZM905.088 0H868.992L717.12 511.59L834.624 0H801.216L717.312 511.795V511.59L905.088 0ZM114.432 0L716.928 511.59L191.232 0H114.432ZM717.12 511.59L497.856 0H457.728L717.12 511.59Z" fill="url(#paint0_radial_28_511)"/>
</g>
<defs>
<radialGradient id="paint0_radial_28_511" cx="0" cy="0" r="1" gradientUnits="userSpaceOnUse" gradientTransform="translate(720 512) scale(611.882 652.674)">
<stop offset="0.159375" stop-color="#FF4343" stop-opacity="0.43"/>
<stop offset="0.430208" stop-color="#FF0000" stop-opacity="0.38"/>
<stop offset="0.607292" stop-color="#FF0000" stop-opacity="0.54"/>
<stop offset="0.773958" stop-color="#FF0000" stop-opacity="0.69"/>
<stop offset="1" stop-color="#880404"/>
</radialGradient>
<clipPath id="clip0_28_511">
<rect width="1440" height="1024" fill="white"/>
</clipPath>
</defs>
</svg>
