<svg width="113" height="93" viewBox="0 0 113 93" fill="none" xmlns="http://www.w3.org/2000/svg">
<g clip-path="url(#clip0_28_557)">
<path d="M47.8 92.8998C46.9 77.5998 38.1 75.6998 20.4 83.7998C30.9 75.9998 30.6 69.3998 7.89999 68.3998C28.3 65.1998 26.8 59.3998 18.7 52.1998C38.2 59.9998 48.8 52.5998 47.5 43.2998C56.8 55.5998 70.8 53.4998 79.6 44.7998C75.4 56.5998 84.1 60.1998 102.5 54.4998C87.3 64.3998 86.7 66.5998 110 68.1998C89.2 69.4998 86.5 74.6998 101 81.4998C85.4 76.7998 72.5 79.5998 78.3 90.3998C64.7 76.5998 51.8 81.7998 47.8 92.8998Z" fill="#DBDBDB"/>
<path d="M47.8 92.8C46.9 66.6 38.1 63.5 20.4 77.3C30.9 64 30.6 52.8 7.89999 51C28.3 45.6 26.8 35.6 18.7 23.3C38.2 36.7 48.8 24 47.5 8C56.8 28.9 70.8 25.4 79.6 10.5C75.4 30.7 84.1 36.7 102.5 27.1C87.3 44 86.6 47.9 110 50.7C89.2 52.9 86.5 61.7 101 73.4C85.4 65.5 72.5 70.2 78.3 88.6C64.7 65.1 51.8 73.9 47.8 92.8Z" fill="white"/>
<path d="M10.4 71.9001L21.6 64.6001L5.89999 70.9001L10.4 71.9001Z" fill="white"/>
<path d="M16.8 64.3999L0.4 67.9999L0 70.3999L16.8 64.3999Z" fill="white"/>
<path d="M93.6 75.8999L110.1 90.0999L112.9 88.5999L93.6 75.8999Z" fill="white"/>
<path d="M99.8 85.8002L90.6 75.2002L98.7 86.9002L99.8 85.8002Z" fill="white"/>
<path d="M100.5 8.5998L84.7 28.2998L98.9 7.2998L100.5 8.5998Z" fill="white"/>
<path d="M101.3 15.7001L87.2 26.7001L99.3 14.6001L101.3 15.7001Z" fill="white"/>
<path d="M31.9 3.9L38.9 23L27.2 0L31.9 3.9Z" fill="white"/>
<path d="M28.4 10.7002L36.5 23.6002L27.5 14.9002L28.4 10.7002Z" fill="white"/>
<g clip-path="url(#clip1_28_557)">
<path d="M60.5 39.4033C53.5964 39.4033 48 44.9997 48 51.9033C48 58.8069 53.5964 64.4033 60.5 64.4033C67.4036 64.4033 73 58.8069 73 51.9033C73 44.9997 67.4036 39.4033 60.5 39.4033ZM66.294 47.9043C66.1058 49.8809 65.2919 54.6774 64.8776 56.8912C64.7024 57.8279 64.3574 58.142 64.0234 58.1727C63.2976 58.2396 62.7463 57.693 62.0432 57.2322C60.943 56.511 60.3215 56.062 59.2536 55.3583C58.0195 54.5451 58.8195 54.0982 59.5228 53.3674C59.7069 53.1762 62.9052 50.2671 62.9671 50.0032C62.9748 49.9702 62.9823 49.8469 62.909 49.7822C62.8357 49.7175 62.728 49.7394 62.6502 49.757C62.5398 49.7821 60.7823 50.9437 57.3776 53.242C56.8787 53.5845 56.4269 53.7514 56.022 53.7427C55.5757 53.7331 54.7172 53.4904 54.0789 53.2829C53.2961 53.0284 52.6739 52.8939 52.7281 52.4617C52.7564 52.2366 53.0663 52.0064 53.6581 51.7712C57.3021 50.1836 59.732 49.1369 60.9478 48.6311C64.4192 47.1872 65.1405 46.9364 65.6106 46.928C65.7141 46.9263 65.9453 46.9519 66.095 47.0734C66.1946 47.16 66.2581 47.2808 66.2729 47.4119C66.2983 47.5748 66.3054 47.7399 66.294 47.9043Z" fill="#FF0000"/>
</g>
</g>
<defs>
<clipPath id="clip0_28_557">
<rect width="112.9" height="92.9" fill="white"/>
</clipPath>
<clipPath id="clip1_28_557">
<rect width="25" height="25.8065" fill="white" transform="translate(48 39)"/>
</clipPath>
</defs>
</svg>
